<svg width="520" height="140" viewBox="0 0 520 140" fill="none" xmlns="http://www.w3.org/2000/svg" role="img" aria-label="multi-agent-skill-sharing">
  <g transform="translate(20,28)">
    <rect x="0" y="0" width="84" height="84" rx="14" fill="#16171D"/>
    <g stroke="#639922" stroke-width="1.6" fill="none" stroke-linecap="round">
      <path d="M42 42 L20 22"/>
      <path d="M42 42 L64 22"/>
      <path d="M42 42 L18 52"/>
      <path d="M42 42 L66 52"/>
      <path d="M42 42 L42 66"/>
    </g>
    <circle cx="20" cy="22" r="5.5" fill="#1E1F27" stroke="#97C459" stroke-width="1.4"/>
    <circle cx="64" cy="22" r="5.5" fill="#1E1F27" stroke="#97C459" stroke-width="1.4"/>
    <circle cx="18" cy="52" r="5.5" fill="#1E1F27" stroke="#97C459" stroke-width="1.4"/>
    <circle cx="66" cy="52" r="5.5" fill="#1E1F27" stroke="#97C459" stroke-width="1.4"/>
    <circle cx="42" cy="66" r="5.5" fill="#1E1F27" stroke="#97C459" stroke-width="1.4"/>
    <rect x="30" y="30" width="24" height="24" rx="7" fill="#639922"/>
    <path d="M37 42 L41 46 L48 38" fill="none" stroke="#EAF3DE" stroke-width="2" stroke-linecap="round" stroke-linejoin="round"/>
  </g>
  <text x="124" y="64" font-family="ui-monospace, SFMono-Regular, Menlo, monospace" font-size="30" font-weight="600" fill="#16171D">skill</text>
  <text x="196" y="64" font-family="ui-monospace, SFMono-Regular, Menlo, monospace" font-size="30" font-weight="600" fill="#639922">·share</text>
  <text x="124" y="94" font-family="ui-sans-serif, system-ui, -apple-system, sans-serif" font-size="15" fill="#5F5E5A">one skill, every agent</text>
</svg>
